<svg xmlns="http://www.w3.org/2000/svg" xmlns:xlink="http://www.w3.org/1999/xlink"><symbol id="icon-close" viewBox="0 0 20 20">
<path fill-rule="evenodd" clip-rule="evenodd" d="M9.99992 12.2528L2.481 19.9998L0 17.4436L7.51892 9.69651L0.589098 2.55644L3.07009 0.000175111L9.99992 7.14025L16.9299 0L19.4109 2.55627L12.4809 9.69651L20 17.4437L17.519 20L9.99992 12.2528Z" fill="currentColor"/>
</symbol><symbol id="menu" viewBox="0 0 15 14">
<rect width="14.75" height="2.26923" fill="currentColor"/>
<rect y="11.3457" width="14.75" height="2.26923" fill="currentColor"/>
<rect y="5.67383" width="14.75" height="2.26923" fill="currentColor"/>
</symbol><symbol id="mouse" viewBox="0 0 19 32">
<path fill-rule="evenodd" clip-rule="evenodd" d="M10.1932 4.38519V0.711111C10.1932 0.414815 10.1339 0.296296 10.0154 0.177778C9.89687 0.0592593 9.7191 0 9.48206 0C9.24502 0 9.06725 0.0592593 8.94873 0.177778C8.83021 0.296296 8.77095 0.414815 8.77095 0.711111V4.38519L8.1191 4.5037C3.73391 5.15556 0.296875 9.06667 0.296875 13.8074V22.5185C0.296875 27.8519 4.38576 32 9.48206 32C14.5784 32 18.6672 27.8519 18.6672 22.5185V13.8074C18.6672 9.06667 15.2302 5.15556 10.7858 4.5037L10.1932 4.38519ZM1.65984 13.8074C1.65984 9.3037 5.09688 5.74815 9.48206 5.74815C13.8672 5.74815 17.3043 9.3037 17.3043 13.8074V22.8148C17.3043 27.3185 13.8672 30.8741 9.48206 30.8741C5.09688 30.8741 1.65984 27.3185 1.65984 22.8148V13.8074Z" fill="#EFEFEF"/>
</symbol><symbol id="tg" viewBox="0 0 36 35">
<rect width="35.0324" height="35" rx="17.5" fill="#2FB3F3"/>
<path d="M16.2015 18.8135L15.9892 21.7108C16.2914 21.7108 16.4237 21.5843 16.581 21.4311L17.9994 20.1101L20.9385 22.2071C21.4779 22.499 21.8575 22.3458 22.0023 21.723L23.9326 12.9142C24.1049 12.1406 23.6454 11.8365 23.121 12.0287L11.7791 16.2591C11.005 16.5511 11.0175 16.9719 11.6467 17.1617L14.5459 18.0399L21.2806 13.9335C21.5978 13.7291 21.8849 13.841 21.6477 14.0478L16.2015 18.8135Z" fill="white"/>
</symbol><symbol id="viber" viewBox="0 0 36 35">
<rect width="35.0324" height="35" rx="17.5" fill="#776EE9"/>
<path d="M18.9967 10.377H16.1551C13.4044 10.377 11.1857 12.6213 11.1857 15.407V17.5628C11.1857 19.5085 12.2886 21.2771 14.0272 22.104V24.5124C14.0272 24.6338 14.1375 24.7453 14.277 24.7453C14.3321 24.7453 14.397 24.7224 14.4424 24.6797L16.4957 22.5896H18.9967C21.7507 22.5896 23.9694 20.3453 23.9694 17.5595V15.4038C23.9694 12.6213 21.7507 10.377 18.9967 10.377ZM20.8651 19.8039L20.1547 20.5224C19.3892 21.2738 17.4235 20.4109 15.6848 18.6226C13.9461 16.8344 13.1741 14.8099 13.9072 14.0585L14.6176 13.3399C14.903 13.0741 15.3507 13.0872 15.6329 13.3628L16.6612 14.4456C16.9239 14.7344 16.9239 15.1642 16.6385 15.453C16.5606 15.5317 16.473 15.5744 16.3757 15.6203C16.0157 15.7319 15.8308 16.083 15.9183 16.4505C16.0935 17.2478 17.0861 18.242 17.8419 18.4389C18.1922 18.5275 18.5523 18.3273 18.6723 17.9861C18.7923 17.6317 19.1848 17.4348 19.5579 17.5562C19.6682 17.589 19.7557 17.6678 19.8433 17.7334L20.8716 18.8162C21.1279 19.0754 21.1279 19.5184 20.8651 19.8039ZM18.2117 13.7927C18.1338 13.7927 18.069 13.7927 18.0041 13.8157C17.8841 13.8386 17.7543 13.7369 17.7413 13.5958C17.7284 13.4547 17.8192 13.3432 17.9489 13.33C18.0365 13.3071 18.1241 13.3071 18.2117 13.3071C19.5222 13.3071 20.5732 14.3899 20.5926 15.6958C20.5926 15.7844 20.5926 15.873 20.5699 15.9616C20.5472 16.083 20.4499 16.1945 20.3072 16.1716C20.1645 16.1486 20.0769 16.0502 20.0996 15.9058C20.0996 15.827 20.1223 15.7614 20.1223 15.6958C20.1125 14.6556 19.2594 13.7927 18.2117 13.7927ZM19.6325 15.7155C19.6098 15.8369 19.5125 15.9484 19.3697 15.9255C19.2594 15.9025 19.1621 15.8139 19.1621 15.7155C19.1621 15.197 18.7372 14.7639 18.2214 14.7639C18.1014 14.7869 17.9717 14.6753 17.9587 14.5441C17.936 14.4227 18.0463 14.2914 18.1663 14.2783H18.1987C19.0194 14.2783 19.6325 14.9181 19.6325 15.7155ZM21.4457 16.4767C21.423 16.5981 21.303 16.6867 21.183 16.6769C21.063 16.667 20.9754 16.5325 20.9851 16.4111C20.9851 16.3881 20.9851 16.3881 20.9851 16.3783C21.0403 16.1683 21.063 15.9484 21.063 15.7155C21.063 14.1339 19.7849 12.8411 18.2214 12.8411C18.1436 12.8411 18.0787 12.8411 18.0138 12.8411C17.8938 12.8641 17.7641 12.7525 17.7641 12.6213C17.7413 12.4999 17.8516 12.3686 17.9717 12.3686C18.0592 12.3686 18.1468 12.3457 18.2214 12.3457C20.0477 12.3457 21.5431 13.8485 21.5431 15.7056C21.5333 15.9583 21.5009 16.2339 21.4457 16.4767Z" fill="white"/>
</symbol><symbol id="whatsapp" viewBox="0 0 36 35">
<rect width="35.0324" height="35" rx="17.5" fill="#20C863"/>
<path d="M17.1784 10.377C13.4292 10.377 10.3871 13.4162 10.3871 17.162C10.3871 18.6619 10.873 20.0434 11.6948 21.1683L10.8296 23.7261L13.5279 22.8853C14.5828 23.5563 15.8352 23.9471 17.1784 23.9471C20.9277 23.9471 23.9698 20.9078 23.9698 17.162C23.9698 13.4162 20.9277 10.377 17.1784 10.377ZM20.2877 20.8013C19.0551 21.2946 17.5854 20.817 15.9774 19.5974C14.3695 18.3777 13.3106 16.6607 13.2395 15.3858C13.1684 14.1109 14.2075 13.4675 14.7724 13.4715C15.3374 13.4754 15.9577 15.2793 15.9656 15.5556C15.9735 15.8358 15.2742 16.3331 15.2465 16.57C15.2189 16.8068 16.1987 17.9751 16.6135 18.2909C17.0244 18.6027 17.8738 19.2027 18.3123 19.1474C18.7469 19.0882 19.0353 18.2159 19.3119 18.1606C19.5884 18.1054 21.0976 18.8553 21.2477 19.0487C21.3979 19.2461 21.3821 20.3671 20.2877 20.8013Z" fill="white"/>
</symbol></svg>